<?xml version="1.0" encoding="UTF-8" standalone="no"?>
<!-- Created with Inkscape (http://www.inkscape.org/) -->

<svg
   xmlns:dc="http://purl.org/dc/elements/1.1/"
   xmlns:cc="http://creativecommons.org/ns#"
   xmlns:rdf="http://www.w3.org/1999/02/22-rdf-syntax-ns#"
   xmlns:svg="http://www.w3.org/2000/svg"
   xmlns="http://www.w3.org/2000/svg"
   xmlns:xlink="http://www.w3.org/1999/xlink"
   xmlns:sodipodi="http://sodipodi.sourceforge.net/DTD/sodipodi-0.dtd"
   xmlns:inkscape="http://www.inkscape.org/namespaces/inkscape"
   width="64"
   height="64"
   id="svg2"
   version="1.1"
   inkscape:version="0.48.4 r9939"
   sodipodi:docname="folder-anime.svg">
  <defs
     id="defs4" />
  <sodipodi:namedview
     id="base"
     pagecolor="#cae4da"
     bordercolor="#666666"
     borderopacity="1.0"
     inkscape:pageopacity="1"
     inkscape:pageshadow="2"
     inkscape:zoom="1"
     inkscape:cx="32.396268"
     inkscape:cy="32.772083"
     inkscape:document-units="px"
     inkscape:current-layer="layer1"
     showgrid="false"
     inkscape:window-width="1274"
     inkscape:window-height="769"
     inkscape:window-x="0"
     inkscape:window-y="25"
     inkscape:window-maximized="0"
     inkscape:object-nodes="true"
     showguides="true"
     inkscape:snap-global="false">
    <inkscape:grid
       type="xygrid"
       id="grid3757"
       empspacing="2"
       visible="true"
       enabled="true"
       snapvisiblegridlinesonly="true"
       spacingx="6px"
       spacingy="6px"
       dotted="false"
       color="#0000ff"
       opacity="0.08627451"
       originx="2px"
       originy="2px" />
    <inkscape:grid
       type="xygrid"
       id="grid3808"
       empspacing="5"
       visible="true"
       enabled="true"
       snapvisiblegridlinesonly="true"
       color="#1bff00"
       opacity="0.1254902"
       empcolor="#00ff0d"
       empopacity="0.25098039"
       dotted="true" />
  </sodipodi:namedview>
  <metadata
     id="metadata7">
    <rdf:RDF>
      <cc:Work
         rdf:about="">
        <dc:format>image/svg+xml</dc:format>
        <dc:type
           rdf:resource="http://purl.org/dc/dcmitype/StillImage" />
        <dc:title />
      </cc:Work>
    </rdf:RDF>
  </metadata>
  <g
     inkscape:label="Layer 1"
     inkscape:groupmode="layer"
     id="layer1"
     transform="translate(0,-988.36218)">
    <path
       sodipodi:nodetypes="ccccccccc"
       inkscape:connector-curvature="0"
       id="path3754"
       d="m 10.15625,998.36218 -1.3124998,4.00002 -3.84375,0 0,42 53.9999998,0 0,-42 -31.844001,0 -1.312,-4.00002 z"
       style="fill:#4994bc;fill-opacity:0.7091837;stroke:none" />
    <path
       style="fill:#4994bc;fill-opacity:1;stroke:none"
       d="m 5,1010.3622 0,34 54,0 0,-34 -54,0 z"
       id="path4280" />
    <g
       id="g7052"
       transform="translate(-2.1829191,0.25681401)">
      <path
         sodipodi:nodetypes="csscssccscsccc"
         inkscape:connector-curvature="0"
         id="path6975"
         d="m 26.676545,1033.0634 c -0.04324,0.1574 -0.0758,0.315 -0.0758,0.4822 0,1.4198 1.628934,2.5709 3.638329,2.5709 1.35137,0 2.525761,-0.5125 3.153218,-1.2854 0.627458,0.7729 1.801851,1.2854 3.153218,1.2854 2.009398,0 3.638329,-1.1511 3.638329,-2.5709 0,-0.1676 -0.03255,-0.3244 -0.0758,-0.4822 l -0.143461,0 c -0.35805,1.1542 -1.678379,2.0247 -3.41904,2.0247 -1.351369,0 -2.52576,-0.5126 -3.153219,-1.2855 -0.627456,0.7729 -1.801849,1.2855 -3.153219,1.2855 -1.740657,0 -3.060491,-0.8705 -3.418548,-2.0247 l -0.143955,0 z"
         style="fill:#78b0cd;fill-opacity:1;stroke:none" />
      <g
         transform="matrix(0.25480354,0,0,0.25480354,61.945938,773.10383)"
         id="g7005">
        <path
           style="fill:#78b0cd;fill-opacity:1;stroke:none"
           d="m -164.09375,-25.71875 c -8.49191,0 -15.375,6.883087 -15.375,15.375 0,8.4919132 6.88309,15.375 15.375,15.375 8.49191,0 15.375,-6.8830868 15.375,-15.375 0,-8.491913 -6.88309,-15.375 -15.375,-15.375 z m -0.125,7.40625 c 4.3926,0 7.9375,3.57615 7.9375,7.96875 0,4.3926005 -3.5449,7.9375 -7.9375,7.9375 -4.3926,0 -7.96875,-3.5448995 -7.96875,-7.9375 0,-4.3926 3.57615,-7.96875 7.96875,-7.96875 z"
           transform="translate(0,988.36218)"
           id="path6971"
           inkscape:connector-curvature="0" />
        <path
           transform="matrix(0.4939749,0,0,0.4939749,-82.689822,982.98914)"
           d="m -148.96958,-10.064761 c 0,8.8923555 -7.20868,16.101034 -16.10104,16.101034 -8.89235,0 -16.10103,-7.2086785 -16.10103,-16.101034 0,-8.892356 7.20868,-16.101034 16.10103,-16.101034 8.89236,0 16.10104,7.208678 16.10104,16.101034 z"
           sodipodi:ry="16.101034"
           sodipodi:rx="16.101034"
           sodipodi:cy="-10.064761"
           sodipodi:cx="-165.07062"
           id="path6998"
           style="fill:#5ea1c3;fill-opacity:1;stroke:none"
           sodipodi:type="arc" />
        <path
           sodipodi:type="arc"
           style="fill:#b3d2e3;fill-opacity:1;stroke:none"
           id="path7000"
           sodipodi:cx="-165.07062"
           sodipodi:cy="-10.064761"
           sodipodi:rx="16.101034"
           sodipodi:ry="16.101034"
           d="m -148.96958,-10.064761 c 0,8.8923555 -7.20868,16.101034 -16.10104,16.101034 -8.89235,0 -16.10103,-7.2086785 -16.10103,-16.101034 0,-8.892356 7.20868,-16.101034 16.10103,-16.101034 8.89236,0 16.10104,7.208678 16.10104,16.101034 z"
           transform="matrix(0.24096235,0,0,0.24096235,-117.62132,975.1628)" />
      </g>
      <use
         height="64"
         width="64"
         transform="translate(26.516047,0)"
         id="use7038"
         xlink:href="#g7005"
         y="0"
         x="0" />
    </g>
  </g>
</svg>
