<?xml version="1.0" encoding="UTF-8" standalone="no"?>
<!-- Created with Inkscape (http://www.inkscape.org/) -->

<svg
   xmlns:dc="http://purl.org/dc/elements/1.1/"
   xmlns:cc="http://creativecommons.org/ns#"
   xmlns:rdf="http://www.w3.org/1999/02/22-rdf-syntax-ns#"
   xmlns:svg="http://www.w3.org/2000/svg"
   xmlns="http://www.w3.org/2000/svg"
   xmlns:sodipodi="http://sodipodi.sourceforge.net/DTD/sodipodi-0.dtd"
   xmlns:inkscape="http://www.inkscape.org/namespaces/inkscape"
   width="64"
   height="64"
   id="svg2"
   version="1.1"
   inkscape:version="0.48.4 r9939"
   sodipodi:docname="folder-games.svg"
   inkscape:export-filename="/home/plejeck/.icons/sayaka/places/64/folder-anime.png"
   inkscape:export-xdpi="90"
   inkscape:export-ydpi="90">
  <defs
     id="defs4" />
  <sodipodi:namedview
     id="base"
     pagecolor="#cae4da"
     bordercolor="#666666"
     borderopacity="1.0"
     inkscape:pageopacity="1"
     inkscape:pageshadow="2"
     inkscape:zoom="1"
     inkscape:cx="20.892527"
     inkscape:cy="33.112998"
     inkscape:document-units="px"
     inkscape:current-layer="layer1"
     showgrid="false"
     inkscape:window-width="1274"
     inkscape:window-height="769"
     inkscape:window-x="0"
     inkscape:window-y="25"
     inkscape:window-maximized="0"
     inkscape:object-nodes="true"
     showguides="true"
     inkscape:snap-global="false"
     inkscape:guide-bbox="true"
     inkscape:snap-object-midpoints="true">
    <inkscape:grid
       type="xygrid"
       id="grid3757"
       empspacing="2"
       visible="true"
       enabled="true"
       snapvisiblegridlinesonly="true"
       spacingx="6px"
       spacingy="6px"
       dotted="false"
       color="#0000ff"
       opacity="0.08627451"
       originx="2px"
       originy="2px" />
    <inkscape:grid
       type="xygrid"
       id="grid3808"
       empspacing="5"
       visible="true"
       enabled="true"
       snapvisiblegridlinesonly="true"
       color="#1bff00"
       opacity="0.1254902"
       empcolor="#00ff0d"
       empopacity="0.25098039"
       dotted="true" />
  </sodipodi:namedview>
  <metadata
     id="metadata7">
    <rdf:RDF>
      <cc:Work
         rdf:about="">
        <dc:format>image/svg+xml</dc:format>
        <dc:type
           rdf:resource="http://purl.org/dc/dcmitype/StillImage" />
        <dc:title />
      </cc:Work>
    </rdf:RDF>
  </metadata>
  <g
     inkscape:label="Layer 1"
     inkscape:groupmode="layer"
     id="layer1"
     transform="translate(0,-988.36218)">
    <path
       sodipodi:nodetypes="ccccccccc"
       inkscape:connector-curvature="0"
       id="path3754"
       d="m 10.15625,998.36218 -1.3124998,4.00002 -3.84375,0 0,42 53.9999998,0 0,-42 -31.844001,0 -1.312,-4.00002 z"
       style="fill:#4994bc;fill-opacity:0.7091837;stroke:none" />
    <path
       style="fill:#4994bc;fill-opacity:1;stroke:none"
       d="m 5,1010.3622 0,34 54,0 0,-34 -54,0 z"
       id="path4280" />
    <path
       style="fill:#6da9c9;fill-opacity:1;stroke:none"
       d="M 24 32 C 20.134007 32 17 35.134007 17 39 C 17 42.865993 20.134007 46 24 46 C 25.901852 46 27.613414 45.230942 28.875 44 L 39.125 44 C 40.386586 45.230942 42.098148 46 44 46 C 47.865993 46 51 42.865993 51 39 C 51 35.134007 47.865993 32 44 32 L 24 32 z "
       transform="translate(0,988.36218)"
       id="path3007" />
    <path
       style="fill:#569cc1;fill-opacity:1;stroke:none"
       d="m 23,1024.3622 0,2 -2,0 0,2 2,0 0,2 2,0 0,-2 2,0 0,-2 -2,0 0,-2 -2,0 z"
       id="rect3013"
       inkscape:connector-curvature="0" />
    <g
       id="g3875"
       style="fill:#569cc1;fill-opacity:1;stroke:none">
      <path
         transform="matrix(0.41822119,0,0,0.41822118,73.706864,1031.354)"
         d="m -73.672544,-10.740263 c 0,1.8427637 -1.493855,3.3366189 -3.336619,3.3366189 -1.842764,0 -3.336619,-1.4938552 -3.336619,-3.3366189 0,-1.842764 1.493855,-3.336619 3.336619,-3.336619 1.842764,0 3.336619,1.493855 3.336619,3.336619 z"
         sodipodi:ry="3.3366189"
         sodipodi:rx="3.3366189"
         sodipodi:cy="-10.740263"
         sodipodi:cx="-77.009163"
         id="path3017"
         style="fill:#569cc1;stroke:none;stroke-width:0.50000000000000000;stroke-linecap:round;stroke-linejoin:miter;stroke-miterlimit:4;stroke-opacity:1;stroke-dasharray:none;fill-opacity:1"
         sodipodi:type="arc" />
      <path
         sodipodi:type="arc"
         style="fill:#569cc1;stroke:none;stroke-width:0.50000000000000000;stroke-linecap:round;stroke-linejoin:miter;stroke-miterlimit:4;stroke-opacity:1;stroke-dasharray:none;fill-opacity:1"
         id="path3019"
         sodipodi:cx="-77.009163"
         sodipodi:cy="-10.740263"
         sodipodi:rx="3.3366189"
         sodipodi:ry="3.3366189"
         d="m -73.672544,-10.740263 c 0,1.8427637 -1.493855,3.3366189 -3.336619,3.3366189 -1.842764,0 -3.336619,-1.4938552 -3.336619,-3.3366189 0,-1.842764 1.493855,-3.336619 3.336619,-3.336619 1.842764,0 3.336619,1.493855 3.336619,3.336619 z"
         transform="matrix(0.41822118,0,0,0.41822118,76.706863,1028.354)" />
      <path
         sodipodi:type="arc"
         style="fill:#569cc1;stroke:none;stroke-width:0.50000000000000000;stroke-linecap:round;stroke-linejoin:miter;stroke-miterlimit:4;stroke-opacity:1;stroke-dasharray:none;fill-opacity:1"
         id="path3021"
         sodipodi:cx="-77.009163"
         sodipodi:cy="-10.740263"
         sodipodi:rx="3.3366189"
         sodipodi:ry="3.3366189"
         d="m -73.672544,-10.740263 c 0,1.8427637 -1.493855,3.3366189 -3.336619,3.3366189 -1.842764,0 -3.336619,-1.4938552 -3.336619,-3.3366189 0,-1.842764 1.493855,-3.336619 3.336619,-3.336619 1.842764,0 3.336619,1.493855 3.336619,3.336619 z"
         transform="matrix(0.41822119,0,0,0.41822118,76.706864,1034.354)" />
      <path
         transform="matrix(0.41822118,0,0,0.41822118,79.706863,1031.354)"
         d="m -73.672544,-10.740263 c 0,1.8427637 -1.493855,3.3366189 -3.336619,3.3366189 -1.842764,0 -3.336619,-1.4938552 -3.336619,-3.3366189 0,-1.842764 1.493855,-3.336619 3.336619,-3.336619 1.842764,0 3.336619,1.493855 3.336619,3.336619 z"
         sodipodi:ry="3.3366189"
         sodipodi:rx="3.3366189"
         sodipodi:cy="-10.740263"
         sodipodi:cx="-77.009163"
         id="path3023"
         style="fill:#569cc1;stroke:none;stroke-width:0.50000000000000000;stroke-linecap:round;stroke-linejoin:miter;stroke-miterlimit:4;stroke-opacity:1;stroke-dasharray:none;fill-opacity:1"
         sodipodi:type="arc" />
    </g>
    <rect
       style="fill:#569cc1;stroke:none;stroke-width:0.23839152999999999;stroke-linecap:round;stroke-linejoin:miter;stroke-miterlimit:4;stroke-opacity:1;stroke-dasharray:none;fill-opacity:1"
       id="rect3025"
       width="2.688035"
       height="0.81345522"
       x="-573.65106"
       y="855.18964"
       ry="0.40672761"
       transform="matrix(0.81126115,-0.58468398,0.58468398,0.81126115,0,0)" />
    <rect
       ry="0.40672761"
       y="852.8725"
       x="-576.8205"
       height="0.81345522"
       width="2.688035"
       id="rect3027"
       style="fill:#569cc1;stroke:none;stroke-width:0.23839152999999999;stroke-linecap:round;stroke-linejoin:miter;stroke-miterlimit:4;stroke-opacity:1;stroke-dasharray:none;fill-opacity:1"
       transform="matrix(0.81126115,-0.58468398,0.58468398,0.81126115,0,0)" />
  </g>
</svg>
