<?xml version="1.0" encoding="UTF-8" standalone="no"?>
<!-- Created with Inkscape (http://www.inkscape.org/) -->

<svg
   xmlns:dc="http://purl.org/dc/elements/1.1/"
   xmlns:cc="http://creativecommons.org/ns#"
   xmlns:rdf="http://www.w3.org/1999/02/22-rdf-syntax-ns#"
   xmlns:svg="http://www.w3.org/2000/svg"
   xmlns="http://www.w3.org/2000/svg"
   xmlns:sodipodi="http://sodipodi.sourceforge.net/DTD/sodipodi-0.dtd"
   xmlns:inkscape="http://www.inkscape.org/namespaces/inkscape"
   width="64"
   height="64"
   id="svg2"
   version="1.1"
   inkscape:version="0.48.4 r9939"
   sodipodi:docname="folder-fappage.svg"
   inkscape:export-filename="/home/plejeck/.icons/sayaka/places/64/folder-anime.png"
   inkscape:export-xdpi="90"
   inkscape:export-ydpi="90">
  <defs
     id="defs4">
    <clipPath
       id="clipPath3019"
       clipPathUnits="userSpaceOnUse">
      <path
         id="path3021-4"
         d="M 0,170 446,170 446,0 0,0 0,170 z" />
    </clipPath>
    <filter
       id="filter4277"
       inkscape:label="Plastify"
       y="-0.2"
       x="-0.2"
       width="1.4"
       height="1.4"
       inkscape:menu="Bumps"
       inkscape:menu-tooltip="HSL edges detection bump with a wavy reflective surface effect and variable crumple"
       color-interpolation-filters="sRGB">
      <feGaussianBlur
         id="feGaussianBlur4279"
         stdDeviation="1"
         result="result14" />
      <feFlood
         id="feFlood4281"
         flood-opacity="1"
         result="result15"
         flood-color="rgb(55,200,113)"
         in="result14" />
      <feTurbulence
         id="feTurbulence4283"
         result="result5"
         numOctaves="1"
         baseFrequency="0.004 0.008"
         seed="25"
         type="fractalNoise" />
      <feDisplacementMap
         id="feDisplacementMap4285"
         in2="result14"
         yChannelSelector="B"
         result="result8"
         in="result5"
         xChannelSelector="R"
         scale="100" />
      <feGaussianBlur
         id="feGaussianBlur4287"
         stdDeviation="1"
         result="result17" />
      <feSpecularLighting
         id="feSpecularLighting4289"
         in="result8"
         lighting-color="rgb(255,255,255)"
         result="result2"
         surfaceScale="-10"
         specularConstant="1"
         specularExponent="50">
        <feDistantLight
           id="feDistantLight4291"
           azimuth="225"
           elevation="80" />
      </feSpecularLighting>
      <feBlend
         id="feBlend4293"
         in2="SourceGraphic"
         mode="screen"
         result="result9" />
      <feComposite
         id="feComposite4295"
         in2="SourceGraphic"
         operator="atop"
         result="result11" />
      <feDisplacementMap
         id="feDisplacementMap4297"
         in2="result5"
         result="result16"
         in="result11"
         scale="0"
         xChannelSelector="R" />
    </filter>
  </defs>
  <sodipodi:namedview
     id="base"
     pagecolor="#cae4da"
     bordercolor="#666666"
     borderopacity="1.0"
     inkscape:pageopacity="1"
     inkscape:pageshadow="2"
     inkscape:zoom="2"
     inkscape:cx="31.619547"
     inkscape:cy="25.065042"
     inkscape:document-units="px"
     inkscape:current-layer="layer1"
     showgrid="false"
     inkscape:window-width="1274"
     inkscape:window-height="769"
     inkscape:window-x="0"
     inkscape:window-y="25"
     inkscape:window-maximized="0"
     inkscape:object-nodes="true"
     showguides="true"
     inkscape:snap-global="false"
     inkscape:guide-bbox="true"
     inkscape:snap-object-midpoints="true">
    <inkscape:grid
       type="xygrid"
       id="grid3757"
       empspacing="2"
       visible="true"
       enabled="true"
       snapvisiblegridlinesonly="true"
       spacingx="6px"
       spacingy="6px"
       dotted="false"
       color="#0000ff"
       opacity="0.08627451"
       originx="2px"
       originy="2px" />
    <inkscape:grid
       type="xygrid"
       id="grid3808"
       empspacing="5"
       visible="true"
       enabled="true"
       snapvisiblegridlinesonly="true"
       color="#1bff00"
       opacity="0.1254902"
       empcolor="#00ff0d"
       empopacity="0.25098039"
       dotted="true" />
  </sodipodi:namedview>
  <metadata
     id="metadata7">
    <rdf:RDF>
      <cc:Work
         rdf:about="">
        <dc:format>image/svg+xml</dc:format>
        <dc:type
           rdf:resource="http://purl.org/dc/dcmitype/StillImage" />
        <dc:title />
      </cc:Work>
    </rdf:RDF>
  </metadata>
  <g
     inkscape:label="Layer 1"
     inkscape:groupmode="layer"
     id="layer1"
     transform="translate(0,-988.36218)">
    <path
       sodipodi:nodetypes="ccccccccc"
       inkscape:connector-curvature="0"
       id="path3754"
       d="m 10.15625,998.36218 -1.3124998,4.00002 -3.84375,0 0,42 53.9999998,0 0,-42 -31.844001,0 -1.312,-4.00002 z"
       style="fill:#4994bc;fill-opacity:0.7091837;stroke:none" />
    <path
       style="fill:#4994bc;fill-opacity:1;stroke:none"
       d="m 5,1010.3622 0,34 54,0 0,-34 -54,0 z"
       id="path4280" />
    <g
       id="g4389"
       transform="translate(-3.6875,5.75)">
      <path
         sodipodi:nodetypes="cscccscsccssc"
         inkscape:connector-curvature="0"
         id="path4179"
         transform="translate(0,988.36218)"
         d="m 17.75,31.0625 c -0.355464,0.05224 -0.795942,2.295967 -1.0625,4.5625 -0.0112,0.09526 -0.02071,0.186102 -0.03125,0.28125 -0.02726,0.174492 -0.06661,0.380647 -0.09375,0.625 -0.05397,0.567525 -0.103947,1.130027 -0.125,1.625 -0.133835,1.806001 0.763818,4.245131 0.444163,5.520527 -0.582039,2.322275 -0.546333,2.680956 0.399587,2.604473 0.685124,0.065 0.365407,-2.9049 0.375,-4.0625 8.79e-4,-0.106065 7.84e-4,-0.234523 0,-0.34375 0.338619,0.0851 0.725331,0.106641 1.15625,0.125 1.522994,0.065 -0.162793,-2.949094 -0.141466,-4.106694 0.02775,-1.506433 2.827754,-4.765346 2.655285,-6.158115 C 21.171787,30.487268 18.064474,31.016377 17.75,31.0625 z"
         style="opacity:0.2;fill:#ececec;fill-opacity:1;stroke:none;filter:url(#filter4277)" />
      <path
         inkscape:connector-curvature="0"
         style="opacity:0.2;fill:#ececec;fill-opacity:1;stroke:none"
         d="m 21.25,1020.1562 c -0.383376,0.9038 -0.476745,1.8904 -0.687059,2.8415 -0.01772,0.472 -0.23489,0.8933 -0.344191,1.3461 -0.01431,0.202 0.179589,0.4692 -0.05453,0.6091 -0.332524,0.5803 -0.443865,1.2682 -0.50797,1.9221 0.04603,0.1219 0.252595,-0.011 0.25,0.125 -0.07156,0.045 -0.132941,0.1408 -0.03125,0.1875 -0.150207,0.1691 0.05594,0.3708 0,0.5625 -0.002,0.8326 -0.256436,1.6948 0.0625,2.5 0.1307,0.9763 -0.03954,1.9572 0,2.9375 0.06285,0.3604 0.05568,0.749 -0.15625,1.0625 -0.0015,0.5412 -0.306076,1.029 -0.59375,1.4688 0.123017,0.1463 0.258855,0.3818 0.125,0.5624 0.01081,0.3167 -0.07086,0.7158 0.21875,0.9376 0.170526,0.2877 0.353194,0.6604 0.71875,0.7187 0.02047,0.1623 0.161302,-0.083 0.25,-0.031 0.219759,-1.0777 0.40766,-2.161 0.5625,-3.25 0.186026,-0.9915 0.267579,-1.9979 0.375,-3 0.06465,-0.291 0.03199,-0.6094 0.1875,-0.875 0.06996,-0.017 0.189104,0.036 0.15625,0.125 l 0.125,0 c 0.09231,-0.01 0.0018,0.215 -0.0625,0.094 -0.120695,0.1154 0.156617,0.022 0.09375,0.1562 -0.06028,0.036 -0.22138,-0.1214 -0.1875,0.031 0.08626,0.049 -0.04873,0.2304 0.125,0.1563 0.137167,0.021 0.101871,0.2066 0,0.25 0.01091,0.093 0.195046,0.1474 0.09375,0.25 -0.113997,0.4274 0.108403,0.8511 0.0625,1.2812 0.102203,0.7018 0.193169,1.4069 0.375,2.0938 0.139396,0.1349 0.409214,0.305 0.5625,0.094 0.113238,-0.058 0.292385,-0.2048 0.1875,-0.3437 0.06373,-0.9897 0.06848,-1.9792 0,-2.9688 -0.15625,-1.9896 -0.3125,-3.9792 -0.46875,-5.9688 -0.100491,-1.0536 -0.321222,-2.0892 -0.53125,-3.125 -0.167896,-0.9582 -0.5456,-1.8596 -0.84375,-2.7812 l -0.0625,0.031 z m -0.65625,18.0626 c 0.04325,0.1605 -0.171021,-0.1022 -0.15625,0.062 0.04362,0.062 0.149261,0.01 0.1875,0.094 0.05876,0.015 0.163928,0 0.125,-0.094 l 0.0625,0 c -0.06443,-0.012 -0.144603,-0.1566 -0.21875,-0.062 z m 0.3125,0.031 -0.03125,0.031 0.125,0 -0.03125,-0.062 -0.0625,0.031 z"
         id="path4189" />
      <path
         style="opacity:0.2;fill:#ececec;fill-opacity:1;stroke:none;filter:url(#filter4277)"
         d="m 20.887786,1017.3034 c -0.355464,0.052 -0.795942,2.2959 -1.0625,4.5625 -0.0112,0.095 -0.02071,0.1861 -0.03125,0.2812 -0.02726,0.1745 -0.06661,0.3807 -0.09375,0.625 -0.05397,0.5675 -0.103947,1.13 -0.125,1.625 -0.133835,1.806 0.763818,4.2451 0.444163,5.5205 -0.582039,2.3223 -0.546333,2.681 0.399587,2.6045 0.685124,0.065 0.365407,-2.9049 0.375,-4.0625 8.79e-4,-0.1061 7.84e-4,-0.2345 0,-0.3437 0.338619,0.085 0.725331,0.1066 1.15625,0.125 1.522994,0.065 -0.162793,-2.9491 -0.141466,-4.1067 0.02775,-1.5065 2.827754,-4.7654 2.655285,-6.1581 -0.154532,-1.248 -3.261845,-0.7189 -3.576319,-0.6727 z"
         id="path4385"
         inkscape:connector-curvature="0"
         sodipodi:nodetypes="cscccscsccssc" />
      <path
         sodipodi:nodetypes="ccccccccccccccccccc"
         id="path4387"
         d="m 23.71875,1019.4062 c -0.312731,1.0239 -0.512789,2.0759 -0.71875,3.125 -0.1875,0.8751 -0.375,1.75 -0.5625,2.625 0.103585,1.0173 0.244867,2.0383 0.15625,3.0626 0,1.5208 0,3.0416 0,4.5624 0.214358,0.1549 -0.03408,0.5446 0.25,0.6563 0.157357,0.2594 0.464877,0.046 0.59375,-0.125 0.127689,-0.6944 -0.158383,-1.4112 0.0625,-2.0937 0.04968,-6.5197 0.669028,2.8804 1.505866,2.9407 0.687543,0 0.996,-0.6232 0.788601,-4.1502 -0.07732,-1.5657 -0.154645,-3.1315 -0.231967,-4.6973 0,-0.1771 0,-0.3542 0,-0.5313 0.09006,-0.045 0.141062,0.1965 0.125,-0.031 0.09233,-0.4554 -0.216614,-0.8862 -0.1875,-1.3438 -0.101677,-0.3954 -0.330619,-0.8008 -0.21875,-1.2187 -0.260417,-1.0729 -0.520833,-2.1458 -0.78125,-3.2187 -0.145199,-0.2663 -0.21802,-0.5708 -0.40625,-0.8126 -0.125,0.4167 -0.25,0.8334 -0.375,1.25 z"
         style="opacity:0.2;fill:#ececec;fill-opacity:1;stroke:none"
         inkscape:connector-curvature="0" />
      <path
         style="opacity:0.2;fill:#ececec;fill-opacity:1;stroke:none;filter:url(#filter4277)"
         d="m 19.9375,1017.7372 c -0.355464,0.052 -0.795942,2.2959 -1.0625,4.5625 -0.0112,0.095 -0.02071,0.1861 -0.03125,0.2812 -0.02726,0.1745 -0.06661,0.3807 -0.09375,0.625 -0.05397,0.5676 -0.103947,1.1301 -0.125,1.625 -0.133835,1.806 0.763818,4.2452 0.444163,5.5206 -0.582039,2.3222 -0.546333,2.6809 0.399587,2.6044 0.685124,0.065 0.365407,-2.9049 0.375,-4.0625 8.79e-4,-0.106 7.84e-4,-0.2345 0,-0.3437 0.338619,0.085 0.725331,0.1066 1.15625,0.125 1.522994,0.065 -0.162793,-2.9491 -0.141466,-4.1067 0.02775,-1.5064 2.827754,-4.7654 2.655285,-6.1581 -0.154532,-1.248 -3.261845,-0.7188 -3.576319,-0.6727 z"
         id="path4395"
         inkscape:connector-curvature="0"
         sodipodi:nodetypes="cscccscsccssc"
         transform="matrix(-0.98580993,-0.16786539,-0.16786539,0.98580993,211.00467,20.147557)" />
    </g>
    <g
       transform="matrix(-0.9758148,-0.2185989,-0.2185989,0.9758148,267.45582,34.995236)"
       id="g4399">
      <path
         style="opacity:0.2;fill:#ececec;fill-opacity:1;stroke:none;filter:url(#filter4277)"
         d="m 17.75,31.0625 c -0.355464,0.05224 -0.795942,2.295967 -1.0625,4.5625 -0.0112,0.09526 -0.02071,0.186102 -0.03125,0.28125 -0.02726,0.174492 -0.06661,0.380647 -0.09375,0.625 -0.05397,0.567525 -0.103947,1.130027 -0.125,1.625 -0.133835,1.806001 0.763818,4.245131 0.444163,5.520527 -0.582039,2.322275 -0.546333,2.680956 0.399587,2.604473 0.685124,0.065 0.365407,-2.9049 0.375,-4.0625 8.79e-4,-0.106065 7.84e-4,-0.234523 0,-0.34375 0.338619,0.0851 0.725331,0.106641 1.15625,0.125 1.522994,0.065 -0.162793,-2.949094 -0.141466,-4.106694 0.02775,-1.506433 2.827754,-4.765346 2.655285,-6.158115 C 21.171787,30.487268 18.064474,31.016377 17.75,31.0625 z"
         transform="translate(0,988.36218)"
         id="path4401"
         inkscape:connector-curvature="0"
         sodipodi:nodetypes="cscccscsccssc" />
      <path
         id="path4403"
         d="m 21.25,1020.1562 c -0.383376,0.9038 -0.476745,1.8904 -0.687059,2.8415 -0.01772,0.472 -0.23489,0.8933 -0.344191,1.3461 -0.01431,0.202 0.179589,0.4692 -0.05453,0.6091 -0.332524,0.5803 -0.443865,1.2682 -0.50797,1.9221 0.04603,0.1219 0.252595,-0.011 0.25,0.125 -0.07156,0.045 -0.132941,0.1408 -0.03125,0.1875 -0.150207,0.1691 0.05594,0.3708 0,0.5625 -0.002,0.8326 -0.256436,1.6948 0.0625,2.5 0.1307,0.9763 -0.03954,1.9572 0,2.9375 0.06285,0.3604 0.05568,0.749 -0.15625,1.0625 -0.0015,0.5412 -0.306076,1.029 -0.59375,1.4688 0.123017,0.1463 0.258855,0.3818 0.125,0.5624 0.01081,0.3167 -0.07086,0.7158 0.21875,0.9376 0.170526,0.2877 0.353194,0.6604 0.71875,0.7187 0.02047,0.1623 0.161302,-0.083 0.25,-0.031 0.219759,-1.0777 0.40766,-2.161 0.5625,-3.25 0.186026,-0.9915 0.267579,-1.9979 0.375,-3 0.06465,-0.291 0.03199,-0.6094 0.1875,-0.875 0.06996,-0.017 0.189104,0.036 0.15625,0.125 l 0.125,0 c 0.09231,-0.01 0.0018,0.215 -0.0625,0.094 -0.120695,0.1154 0.156617,0.022 0.09375,0.1562 -0.06028,0.036 -0.22138,-0.1214 -0.1875,0.031 0.08626,0.049 -0.04873,0.2304 0.125,0.1563 0.137167,0.021 0.101871,0.2066 0,0.25 0.01091,0.093 0.195046,0.1474 0.09375,0.25 -0.113997,0.4274 0.108403,0.8511 0.0625,1.2812 0.102203,0.7018 0.193169,1.4069 0.375,2.0938 0.139396,0.1349 0.409214,0.305 0.5625,0.094 0.113238,-0.058 0.292385,-0.2048 0.1875,-0.3437 0.06373,-0.9897 0.06848,-1.9792 0,-2.9688 -0.15625,-1.9896 -0.3125,-3.9792 -0.46875,-5.9688 -0.100491,-1.0536 -0.321222,-2.0892 -0.53125,-3.125 -0.167896,-0.9582 -0.5456,-1.8596 -0.84375,-2.7812 l -0.0625,0.031 z m -0.65625,18.0626 c 0.04325,0.1605 -0.171021,-0.1022 -0.15625,0.062 0.04362,0.062 0.149261,0.01 0.1875,0.094 0.05876,0.015 0.163928,0 0.125,-0.094 l 0.0625,0 c -0.06443,-0.012 -0.144603,-0.1566 -0.21875,-0.062 z m 0.3125,0.031 -0.03125,0.031 0.125,0 -0.03125,-0.062 -0.0625,0.031 z"
         style="opacity:0.2;fill:#ececec;fill-opacity:1;stroke:none"
         inkscape:connector-curvature="0" />
      <path
         sodipodi:nodetypes="cscccscsccssc"
         inkscape:connector-curvature="0"
         id="path4405"
         d="m 20.887786,1017.3034 c -0.355464,0.052 -0.795942,2.2959 -1.0625,4.5625 -0.0112,0.095 -0.02071,0.1861 -0.03125,0.2812 -0.02726,0.1745 -0.06661,0.3807 -0.09375,0.625 -0.05397,0.5675 -0.103947,1.13 -0.125,1.625 -0.133835,1.806 0.763818,4.2451 0.444163,5.5205 -0.582039,2.3223 -0.546333,2.681 0.399587,2.6045 0.685124,0.065 0.365407,-2.9049 0.375,-4.0625 8.79e-4,-0.1061 7.84e-4,-0.2345 0,-0.3437 0.338619,0.085 0.725331,0.1066 1.15625,0.125 1.522994,0.065 -0.162793,-2.9491 -0.141466,-4.1067 0.02775,-1.5065 2.827754,-4.7654 2.655285,-6.1581 -0.154532,-1.248 -3.261845,-0.7189 -3.576319,-0.6727 z"
         style="opacity:0.2;fill:#ececec;fill-opacity:1;stroke:none;filter:url(#filter4277)" />
      <path
         inkscape:connector-curvature="0"
         style="opacity:0.2;fill:#ececec;fill-opacity:1;stroke:none"
         d="m 23.71875,1019.4062 c -0.312731,1.0239 -0.512789,2.0759 -0.71875,3.125 -0.1875,0.8751 -0.375,1.75 -0.5625,2.625 0.103585,1.0173 0.244867,2.0383 0.15625,3.0626 0,1.5208 0,3.0416 0,4.5624 0.214358,0.1549 -0.03408,0.5446 0.25,0.6563 0.157357,0.2594 0.464877,0.046 0.59375,-0.125 0.127689,-0.6944 -0.158383,-1.4112 0.0625,-2.0937 0.04968,-6.5197 0.669028,2.8804 1.505866,2.9407 0.687543,0 0.996,-0.6232 0.788601,-4.1502 -0.07732,-1.5657 -0.154645,-3.1315 -0.231967,-4.6973 0,-0.1771 0,-0.3542 0,-0.5313 0.09006,-0.045 0.141062,0.1965 0.125,-0.031 0.09233,-0.4554 -0.216614,-0.8862 -0.1875,-1.3438 -0.101677,-0.3954 -0.330619,-0.8008 -0.21875,-1.2187 -0.260417,-1.0729 -0.520833,-2.1458 -0.78125,-3.2187 -0.145199,-0.2663 -0.21802,-0.5708 -0.40625,-0.8126 -0.125,0.4167 -0.25,0.8334 -0.375,1.25 z"
         id="path4407"
         sodipodi:nodetypes="ccccccccccccccccccc" />
      <path
         transform="matrix(-0.98580993,-0.16786539,-0.16786539,0.98580993,211.00467,20.147557)"
         sodipodi:nodetypes="cscccscsccssc"
         inkscape:connector-curvature="0"
         id="path4409"
         d="m 19.9375,1017.7372 c -0.355464,0.052 -0.795942,2.2959 -1.0625,4.5625 -0.0112,0.095 -0.02071,0.1861 -0.03125,0.2812 -0.02726,0.1745 -0.06661,0.3807 -0.09375,0.625 -0.05397,0.5676 -0.103947,1.1301 -0.125,1.625 -0.133835,1.806 0.763818,4.2452 0.444163,5.5206 -0.582039,2.3222 -0.546333,2.6809 0.399587,2.6044 0.685124,0.065 0.365407,-2.9049 0.375,-4.0625 8.79e-4,-0.106 7.84e-4,-0.2345 0,-0.3437 0.338619,0.085 0.725331,0.1066 1.15625,0.125 1.522994,0.065 -0.162793,-2.9491 -0.141466,-4.1067 0.02775,-1.5064 2.827754,-4.7654 2.655285,-6.1581 -0.154532,-1.248 -3.261845,-0.7188 -3.576319,-0.6727 z"
         style="opacity:0.2;fill:#ececec;fill-opacity:1;stroke:none;filter:url(#filter4277)" />
    </g>
    <g
       transform="matrix(0.69085623,0,0,0.69085623,24.155579,315.44494)"
       id="g4423">
      <path
         style="opacity:0.2;fill:#ececec;fill-opacity:1;stroke:none;filter:url(#filter4277)"
         d="m 17.75,31.0625 c -0.355464,0.05224 -0.795942,2.295967 -1.0625,4.5625 -0.0112,0.09526 -0.02071,0.186102 -0.03125,0.28125 -0.02726,0.174492 -0.06661,0.380647 -0.09375,0.625 -0.05397,0.567525 -0.103947,1.130027 -0.125,1.625 -0.133835,1.806001 0.763818,4.245131 0.444163,5.520527 -0.582039,2.322275 -0.546333,2.680956 0.399587,2.604473 0.685124,0.065 0.365407,-2.9049 0.375,-4.0625 8.79e-4,-0.106065 7.84e-4,-0.234523 0,-0.34375 0.338619,0.0851 0.725331,0.106641 1.15625,0.125 1.522994,0.065 -0.162793,-2.949094 -0.141466,-4.106694 0.02775,-1.506433 2.827754,-4.765346 2.655285,-6.158115 C 21.171787,30.487268 18.064474,31.016377 17.75,31.0625 z"
         transform="translate(0,988.36218)"
         id="path4425"
         inkscape:connector-curvature="0"
         sodipodi:nodetypes="cscccscsccssc" />
      <path
         id="path4427"
         d="m 21.25,1020.1562 c -0.383376,0.9038 -0.476745,1.8904 -0.687059,2.8415 -0.01772,0.472 -0.23489,0.8933 -0.344191,1.3461 -0.01431,0.202 0.179589,0.4692 -0.05453,0.6091 -0.332524,0.5803 -0.443865,1.2682 -0.50797,1.9221 0.04603,0.1219 0.252595,-0.011 0.25,0.125 -0.07156,0.045 -0.132941,0.1408 -0.03125,0.1875 -0.150207,0.1691 0.05594,0.3708 0,0.5625 -0.002,0.8326 -0.256436,1.6948 0.0625,2.5 0.1307,0.9763 -0.03954,1.9572 0,2.9375 0.06285,0.3604 0.05568,0.749 -0.15625,1.0625 -0.0015,0.5412 -0.306076,1.029 -0.59375,1.4688 0.123017,0.1463 0.258855,0.3818 0.125,0.5624 0.01081,0.3167 -0.07086,0.7158 0.21875,0.9376 0.170526,0.2877 0.353194,0.6604 0.71875,0.7187 0.02047,0.1623 0.161302,-0.083 0.25,-0.031 0.219759,-1.0777 0.40766,-2.161 0.5625,-3.25 0.186026,-0.9915 0.267579,-1.9979 0.375,-3 0.06465,-0.291 0.03199,-0.6094 0.1875,-0.875 0.06996,-0.017 0.189104,0.036 0.15625,0.125 l 0.125,0 c 0.09231,-0.01 0.0018,0.215 -0.0625,0.094 -0.120695,0.1154 0.156617,0.022 0.09375,0.1562 -0.06028,0.036 -0.22138,-0.1214 -0.1875,0.031 0.08626,0.049 -0.04873,0.2304 0.125,0.1563 0.137167,0.021 0.101871,0.2066 0,0.25 0.01091,0.093 0.195046,0.1474 0.09375,0.25 -0.113997,0.4274 0.108403,0.8511 0.0625,1.2812 0.102203,0.7018 0.193169,1.4069 0.375,2.0938 0.139396,0.1349 0.409214,0.305 0.5625,0.094 0.113238,-0.058 0.292385,-0.2048 0.1875,-0.3437 0.06373,-0.9897 0.06848,-1.9792 0,-2.9688 -0.15625,-1.9896 -0.3125,-3.9792 -0.46875,-5.9688 -0.100491,-1.0536 -0.321222,-2.0892 -0.53125,-3.125 -0.167896,-0.9582 -0.5456,-1.8596 -0.84375,-2.7812 l -0.0625,0.031 z m -0.65625,18.0626 c 0.04325,0.1605 -0.171021,-0.1022 -0.15625,0.062 0.04362,0.062 0.149261,0.01 0.1875,0.094 0.05876,0.015 0.163928,0 0.125,-0.094 l 0.0625,0 c -0.06443,-0.012 -0.144603,-0.1566 -0.21875,-0.062 z m 0.3125,0.031 -0.03125,0.031 0.125,0 -0.03125,-0.062 -0.0625,0.031 z"
         style="opacity:0.2;fill:#ececec;fill-opacity:1;stroke:none"
         inkscape:connector-curvature="0" />
      <path
         sodipodi:nodetypes="cscccscsccssc"
         inkscape:connector-curvature="0"
         id="path4429"
         d="m 20.887786,1017.3034 c -0.355464,0.052 -0.795942,2.2959 -1.0625,4.5625 -0.0112,0.095 -0.02071,0.1861 -0.03125,0.2812 -0.02726,0.1745 -0.06661,0.3807 -0.09375,0.625 -0.05397,0.5675 -0.103947,1.13 -0.125,1.625 -0.133835,1.806 0.763818,4.2451 0.444163,5.5205 -0.582039,2.3223 -0.546333,2.681 0.399587,2.6045 0.685124,0.065 0.365407,-2.9049 0.375,-4.0625 8.79e-4,-0.1061 7.84e-4,-0.2345 0,-0.3437 0.338619,0.085 0.725331,0.1066 1.15625,0.125 1.522994,0.065 -0.162793,-2.9491 -0.141466,-4.1067 0.02775,-1.5065 2.827754,-4.7654 2.655285,-6.1581 -0.154532,-1.248 -3.261845,-0.7189 -3.576319,-0.6727 z"
         style="opacity:0.2;fill:#ececec;fill-opacity:1;stroke:none;filter:url(#filter4277)" />
      <path
         inkscape:connector-curvature="0"
         style="opacity:0.2;fill:#ececec;fill-opacity:1;stroke:none"
         d="m 23.71875,1019.4062 c -0.312731,1.0239 -0.512789,2.0759 -0.71875,3.125 -0.1875,0.8751 -0.375,1.75 -0.5625,2.625 0.103585,1.0173 0.244867,2.0383 0.15625,3.0626 0,1.5208 0,3.0416 0,4.5624 0.214358,0.1549 -0.03408,0.5446 0.25,0.6563 0.157357,0.2594 0.464877,0.046 0.59375,-0.125 0.127689,-0.6944 -0.158383,-1.4112 0.0625,-2.0937 0.04968,-6.5197 0.669028,2.8804 1.505866,2.9407 0.687543,0 0.996,-0.6232 0.788601,-4.1502 -0.07732,-1.5657 -0.154645,-3.1315 -0.231967,-4.6973 0,-0.1771 0,-0.3542 0,-0.5313 0.09006,-0.045 0.141062,0.1965 0.125,-0.031 0.09233,-0.4554 -0.216614,-0.8862 -0.1875,-1.3438 -0.101677,-0.3954 -0.330619,-0.8008 -0.21875,-1.2187 -0.260417,-1.0729 -0.520833,-2.1458 -0.78125,-3.2187 -0.145199,-0.2663 -0.21802,-0.5708 -0.40625,-0.8126 -0.125,0.4167 -0.25,0.8334 -0.375,1.25 z"
         id="path4431"
         sodipodi:nodetypes="ccccccccccccccccccc" />
      <path
         transform="matrix(-0.98580993,-0.16786539,-0.16786539,0.98580993,211.00467,20.147557)"
         sodipodi:nodetypes="cscccscsccssc"
         inkscape:connector-curvature="0"
         id="path4433"
         d="m 19.9375,1017.7372 c -0.355464,0.052 -0.795942,2.2959 -1.0625,4.5625 -0.0112,0.095 -0.02071,0.1861 -0.03125,0.2812 -0.02726,0.1745 -0.06661,0.3807 -0.09375,0.625 -0.05397,0.5676 -0.103947,1.1301 -0.125,1.625 -0.133835,1.806 0.763818,4.2452 0.444163,5.5206 -0.582039,2.3222 -0.546333,2.6809 0.399587,2.6044 0.685124,0.065 0.365407,-2.9049 0.375,-4.0625 8.79e-4,-0.106 7.84e-4,-0.2345 0,-0.3437 0.338619,0.085 0.725331,0.1066 1.15625,0.125 1.522994,0.065 -0.162793,-2.9491 -0.141466,-4.1067 0.02775,-1.5064 2.827754,-4.7654 2.655285,-6.1581 -0.154532,-1.248 -3.261845,-0.7188 -3.576319,-0.6727 z"
         style="opacity:0.2;fill:#ececec;fill-opacity:1;stroke:none;filter:url(#filter4277)" />
    </g>
    <path
       style="opacity:0.2;fill:#ececec;fill-opacity:1;stroke:none"
       d="m 15.5625,37.4375 c 2.3125,-2.9375 5,-2.5625 5,-2.5625 0,0 0.375,2.3125 3,1.4375 2.625,-0.875 3.375,1.9375 3.375,1.9375 l -1.125,3.5 c 0,0 -3.5,-3.3125 -5.0625,-0.25 -1.5625,3.0625 -7.375,-2.0625 -5.1875,-4.0625 z"
       id="path4435"
       inkscape:connector-curvature="0"
       transform="translate(0,988.36218)" />
    <path
       inkscape:connector-curvature="0"
       id="path4437"
       d="m 24.567639,1031.4423 c 2.216393,-3.0106 1.139902,-5.5015 1.139902,-5.5015 0,0 -2.328925,0.2537 -2.183838,-2.5094 0.145086,-2.7632 -2.765587,-2.7379 -2.765587,-2.7379 l -3.074553,2.0156 c 0,0 4.124287,2.4926 1.587862,4.8135 -2.536425,2.321 3.950277,6.5605 5.296214,3.9197 z"
       style="opacity:0.2;fill:#ececec;fill-opacity:1;stroke:none" />
    <g
       id="g4439"
       transform="matrix(0.69085623,0,0,0.69085623,34.218079,323.75744)">
      <path
         sodipodi:nodetypes="cscccscsccssc"
         inkscape:connector-curvature="0"
         id="path4441"
         transform="translate(0,988.36218)"
         d="m 17.75,31.0625 c -0.355464,0.05224 -0.795942,2.295967 -1.0625,4.5625 -0.0112,0.09526 -0.02071,0.186102 -0.03125,0.28125 -0.02726,0.174492 -0.06661,0.380647 -0.09375,0.625 -0.05397,0.567525 -0.103947,1.130027 -0.125,1.625 -0.133835,1.806001 0.763818,4.245131 0.444163,5.520527 -0.582039,2.322275 -0.546333,2.680956 0.399587,2.604473 0.685124,0.065 0.365407,-2.9049 0.375,-4.0625 8.79e-4,-0.106065 7.84e-4,-0.234523 0,-0.34375 0.338619,0.0851 0.725331,0.106641 1.15625,0.125 1.522994,0.065 -0.162793,-2.949094 -0.141466,-4.106694 0.02775,-1.506433 2.827754,-4.765346 2.655285,-6.158115 C 21.171787,30.487268 18.064474,31.016377 17.75,31.0625 z"
         style="opacity:0.2;fill:#ececec;fill-opacity:1;stroke:none;filter:url(#filter4277)" />
      <path
         inkscape:connector-curvature="0"
         style="opacity:0.2;fill:#ececec;fill-opacity:1;stroke:none"
         d="m 21.25,1020.1562 c -0.383376,0.9038 -0.476745,1.8904 -0.687059,2.8415 -0.01772,0.472 -0.23489,0.8933 -0.344191,1.3461 -0.01431,0.202 0.179589,0.4692 -0.05453,0.6091 -0.332524,0.5803 -0.443865,1.2682 -0.50797,1.9221 0.04603,0.1219 0.252595,-0.011 0.25,0.125 -0.07156,0.045 -0.132941,0.1408 -0.03125,0.1875 -0.150207,0.1691 0.05594,0.3708 0,0.5625 -0.002,0.8326 -0.256436,1.6948 0.0625,2.5 0.1307,0.9763 -0.03954,1.9572 0,2.9375 0.06285,0.3604 0.05568,0.749 -0.15625,1.0625 -0.0015,0.5412 -0.306076,1.029 -0.59375,1.4688 0.123017,0.1463 0.258855,0.3818 0.125,0.5624 0.01081,0.3167 -0.07086,0.7158 0.21875,0.9376 0.170526,0.2877 0.353194,0.6604 0.71875,0.7187 0.02047,0.1623 0.161302,-0.083 0.25,-0.031 0.219759,-1.0777 0.40766,-2.161 0.5625,-3.25 0.186026,-0.9915 0.267579,-1.9979 0.375,-3 0.06465,-0.291 0.03199,-0.6094 0.1875,-0.875 0.06996,-0.017 0.189104,0.036 0.15625,0.125 l 0.125,0 c 0.09231,-0.01 0.0018,0.215 -0.0625,0.094 -0.120695,0.1154 0.156617,0.022 0.09375,0.1562 -0.06028,0.036 -0.22138,-0.1214 -0.1875,0.031 0.08626,0.049 -0.04873,0.2304 0.125,0.1563 0.137167,0.021 0.101871,0.2066 0,0.25 0.01091,0.093 0.195046,0.1474 0.09375,0.25 -0.113997,0.4274 0.108403,0.8511 0.0625,1.2812 0.102203,0.7018 0.193169,1.4069 0.375,2.0938 0.139396,0.1349 0.409214,0.305 0.5625,0.094 0.113238,-0.058 0.292385,-0.2048 0.1875,-0.3437 0.06373,-0.9897 0.06848,-1.9792 0,-2.9688 -0.15625,-1.9896 -0.3125,-3.9792 -0.46875,-5.9688 -0.100491,-1.0536 -0.321222,-2.0892 -0.53125,-3.125 -0.167896,-0.9582 -0.5456,-1.8596 -0.84375,-2.7812 l -0.0625,0.031 z m -0.65625,18.0626 c 0.04325,0.1605 -0.171021,-0.1022 -0.15625,0.062 0.04362,0.062 0.149261,0.01 0.1875,0.094 0.05876,0.015 0.163928,0 0.125,-0.094 l 0.0625,0 c -0.06443,-0.012 -0.144603,-0.1566 -0.21875,-0.062 z m 0.3125,0.031 -0.03125,0.031 0.125,0 -0.03125,-0.062 -0.0625,0.031 z"
         id="path4443" />
      <path
         style="opacity:0.2;fill:#ececec;fill-opacity:1;stroke:none;filter:url(#filter4277)"
         d="m 19.440307,1023.0028 c -0.355464,0.052 -0.795942,2.2959 -1.0625,4.5625 -0.0112,0.095 -0.02071,0.1861 -0.03125,0.2812 -0.02726,0.1745 -0.06661,0.3807 -0.09375,0.625 -0.05397,0.5675 -0.103947,1.13 -0.125,1.625 -0.133835,1.806 0.763818,4.2451 0.444163,5.5205 -0.582039,2.3223 -0.546333,2.681 0.399587,2.6045 0.685124,0.065 0.365407,-2.9049 0.375,-4.0625 8.79e-4,-0.1061 7.84e-4,-0.2345 0,-0.3437 0.338619,0.085 0.725331,0.1066 1.15625,0.125 1.522994,0.065 -0.162793,-2.9491 -0.141466,-4.1067 0.02775,-1.5065 2.827754,-4.7654 2.655285,-6.1581 -0.154532,-1.248 -3.261845,-0.7189 -3.576319,-0.6727 z"
         id="path4445"
         inkscape:connector-curvature="0"
         sodipodi:nodetypes="cscccscsccssc" />
      <path
         sodipodi:nodetypes="ccccccccccccccccccc"
         id="path4447"
         d="m 21.276129,1020.9441 c -0.312731,1.0239 -0.512789,2.0759 -0.71875,3.125 -0.1875,0.8751 -0.375,1.75 -0.5625,2.625 0.103585,1.0173 0.244867,2.0383 0.15625,3.0626 0,1.5208 0,3.0416 0,4.5624 0.214358,0.1549 -0.03408,0.5446 0.25,0.6563 0.157357,0.2594 0.464877,0.046 0.59375,-0.125 0.127689,-0.6944 -0.158383,-1.4112 0.0625,-2.0937 0.04968,-6.5197 0.669028,2.8804 1.505866,2.9407 0.687543,0 0.996,-0.6232 0.788601,-4.1502 -0.07732,-1.5657 -0.154645,-3.1315 -0.231967,-4.6973 0,-0.1771 0,-0.3542 0,-0.5313 0.09006,-0.045 0.141062,0.1965 0.125,-0.031 0.09233,-0.4554 -0.216614,-0.8862 -0.1875,-1.3438 -0.101677,-0.3954 -0.330619,-0.8008 -0.21875,-1.2187 -0.260417,-1.0729 -0.520833,-2.1458 -0.78125,-3.2187 -0.145199,-0.2663 -0.21802,-0.5708 -0.40625,-0.8126 -0.125,0.4167 -0.25,0.8334 -0.375,1.25 z"
         style="opacity:0.2;fill:#ececec;fill-opacity:1;stroke:none"
         inkscape:connector-curvature="0" />
      <path
         style="opacity:0.2;fill:#ececec;fill-opacity:1;stroke:none;filter:url(#filter4277)"
         d="m 19.9375,1017.7372 c -0.355464,0.052 -0.795942,2.2959 -1.0625,4.5625 -0.0112,0.095 -0.02071,0.1861 -0.03125,0.2812 -0.02726,0.1745 -0.06661,0.3807 -0.09375,0.625 -0.05397,0.5676 -0.103947,1.1301 -0.125,1.625 -0.133835,1.806 0.763818,4.2452 0.444163,5.5206 -0.582039,2.3222 -0.546333,2.6809 0.399587,2.6044 0.685124,0.065 0.365407,-2.9049 0.375,-4.0625 8.79e-4,-0.106 7.84e-4,-0.2345 0,-0.3437 0.338619,0.085 0.725331,0.1066 1.15625,0.125 1.522994,0.065 -0.162793,-2.9491 -0.141466,-4.1067 0.02775,-1.5064 2.827754,-4.7654 2.655285,-6.1581 -0.154532,-1.248 -3.261845,-0.7188 -3.576319,-0.6727 z"
         id="path4449"
         inkscape:connector-curvature="0"
         sodipodi:nodetypes="cscccscsccssc"
         transform="matrix(-0.98580993,-0.16786539,-0.16786539,0.98580993,215.61851,21.142699)" />
    </g>
  </g>
</svg>
