<?xml version="1.0" encoding="UTF-8" standalone="no"?>
<!-- Created with Inkscape (http://www.inkscape.org/) -->

<svg
   xmlns:dc="http://purl.org/dc/elements/1.1/"
   xmlns:cc="http://creativecommons.org/ns#"
   xmlns:rdf="http://www.w3.org/1999/02/22-rdf-syntax-ns#"
   xmlns:svg="http://www.w3.org/2000/svg"
   xmlns="http://www.w3.org/2000/svg"
   xmlns:sodipodi="http://sodipodi.sourceforge.net/DTD/sodipodi-0.dtd"
   xmlns:inkscape="http://www.inkscape.org/namespaces/inkscape"
   width="64"
   height="64"
   id="svg2"
   version="1.1"
   inkscape:version="0.48.4 r9939"
   sodipodi:docname="folder-music.svg">
  <defs
     id="defs4" />
  <sodipodi:namedview
     id="base"
     pagecolor="#cae4da"
     bordercolor="#666666"
     borderopacity="1.0"
     inkscape:pageopacity="1"
     inkscape:pageshadow="2"
     inkscape:zoom="1"
     inkscape:cx="21.310857"
     inkscape:cy="26.666436"
     inkscape:document-units="px"
     inkscape:current-layer="layer1"
     showgrid="false"
     inkscape:window-width="1274"
     inkscape:window-height="769"
     inkscape:window-x="0"
     inkscape:window-y="25"
     inkscape:window-maximized="0"
     inkscape:object-nodes="true"
     showguides="true">
    <inkscape:grid
       type="xygrid"
       id="grid3757"
       empspacing="2"
       visible="true"
       enabled="true"
       snapvisiblegridlinesonly="true"
       spacingx="6px"
       spacingy="6px"
       dotted="false"
       color="#0000ff"
       opacity="0.08627451"
       originx="2px"
       originy="2px" />
    <inkscape:grid
       type="xygrid"
       id="grid3808"
       empspacing="5"
       visible="true"
       enabled="true"
       snapvisiblegridlinesonly="true"
       color="#1bff00"
       opacity="0.1254902"
       empcolor="#00ff0d"
       empopacity="0.25098039"
       dotted="true" />
  </sodipodi:namedview>
  <metadata
     id="metadata7">
    <rdf:RDF>
      <cc:Work
         rdf:about="">
        <dc:format>image/svg+xml</dc:format>
        <dc:type
           rdf:resource="http://purl.org/dc/dcmitype/StillImage" />
        <dc:title />
      </cc:Work>
    </rdf:RDF>
  </metadata>
  <g
     inkscape:label="Layer 1"
     inkscape:groupmode="layer"
     id="layer1"
     transform="translate(0,-988.36218)">
    <path
       sodipodi:nodetypes="ccccccccc"
       inkscape:connector-curvature="0"
       id="path3754"
       d="m 10.15625,998.36218 -1.3124998,4.00002 -3.84375,0 0,42 53.9999998,0 0,-42 -31.844001,0 -1.312,-4.00002 z"
       style="fill:#4994bc;fill-opacity:0.7091837;stroke:none" />
    <path
       style="fill:#4994bc;fill-opacity:1;stroke:none"
       d="m 5,1010.3622 0,34 54,0 0,-34 -54,0 z"
       id="path4280" />
    <g
       id="g4815"
       transform="matrix(1.6153846,0,0,1.6153846,-23.615386,-623.26148)">
      <path
         transform="matrix(0.86666667,0,0,1.031746,79.619049,980.44156)"
         d="m -55,45.5 c 0,0.828427 -1.119288,1.5 -2.5,1.5 -1.380712,0 -2.5,-0.671573 -2.5,-1.5 0,-0.828427 1.119288,-1.5 2.5,-1.5 1.380712,0 2.5,0.671573 2.5,1.5 z"
         sodipodi:ry="1.5"
         sodipodi:rx="2.5"
         sodipodi:cy="45.5"
         sodipodi:cx="-57.5"
         id="path4790"
         style="fill:#6da9c9;fill-opacity:1;stroke:none"
         sodipodi:type="arc" />
      <rect
         y="1019.6718"
         x="30.714287"
         height="7.7142768"
         width="1.2380954"
         id="rect4794"
         style="fill:#6da9c9;fill-opacity:1;stroke:none" />
      <path
         sodipodi:type="arc"
         style="fill:#6da9c9;fill-opacity:1;stroke:none"
         id="path4804"
         sodipodi:cx="-57.5"
         sodipodi:cy="45.5"
         sodipodi:rx="2.5"
         sodipodi:ry="1.5"
         d="m -55,45.5 c 0,0.828427 -1.119288,1.5 -2.5,1.5 -1.380712,0 -2.5,-0.671573 -2.5,-1.5 0,-0.828427 1.119288,-1.5 2.5,-1.5 1.380712,0 2.5,0.671573 2.5,1.5 z"
         transform="matrix(0.86666655,0,0,1.031746,87.66666,978.63201)" />
      <rect
         style="fill:#6da9c9;fill-opacity:1;stroke:none"
         id="rect4806"
         width="1.2380971"
         height="8.0476189"
         x="38.761906"
         y="1017.4813" />
      <path
         style="fill:#6da9c9;fill-opacity:1;stroke:none"
         d="m 30.714286,1017.7908 9.285715,-2.4762 0,3.7143 -9.285715,2.4762 z"
         id="path4808"
         inkscape:connector-curvature="0"
         sodipodi:nodetypes="ccccc" />
    </g>
  </g>
</svg>
